<?xml version="1.0" encoding="utf-8"?>
<!-- Uploaded to: SVG Repo, www.svgrepo.com, Generator: SVG Repo Mixer Tools -->
<svg width="800px" height="800px" viewBox="0 0 1024 1024" class="icon"  version="1.1" xmlns="http://www.w3.org/2000/svg"><path d="M482.1 293.3h60.8V677h-60.8z" fill="#A4A9AD" /><path d="M512.5 617.1l-30.4-23.8v83.8h60.8v-83.8z" fill="" /><path d="M482.1 293.3v110.5c9.8 2 20 3 30.4 3 10.4 0 20.6-1 30.4-3V293.3h-60.8z" fill="" /><path d="M421.57 567.208L703.51 788.18l-37.508 47.856-281.94-220.974z" fill="#A4A9AD" /><path d="M504 631.7l-49.3 38.7L504 709l49.3-38.6z" fill="" /><path d="M392.1 604.9l-3.8 13.4 51.7 40.5 17.9-63.2-36.2-28.4z" fill="" /><path d="M526.3 649.2L477 687.8l49.3 38.7 49.3-38.7z" fill="" /><path d="M603.408 567.172l37.508 47.856L358.976 836l-37.507-47.855z" fill="#A4A9AD" /><path d="M335.3 805.6l23.8 30.4 39.5-31 28.2-99.4-81.3 63.7zM603.4 567.2l-36.3 28.4 17.9 63.2 51.8-40.5-3.8-13.4zM679.5 769.3l-81.2-63.7 28.1 99.4 39.6 31 23.8-30.4z" fill="" /><path d="M687.2 932.3L512.5 315.6 337.9 932.3l-58.5-16.6 203.9-720c3.7-13.1 15.7-22.1 29.3-22.1 13.6 0 25.5 9 29.3 22.1l203.9 720-58.6 16.6z" fill="#333E48" /><path d="M541.8 195.7c-3.7-13.1-15.7-22.1-29.3-22.1-13.6 0-25.5 9-29.3 22.1l-55.9 197.4c17.2 10.5 36.5 17.9 57.1 21.5l28-99 28 99c20.6-3.6 39.9-11 57.1-21.5l-55.7-197.4z" fill="" /><path d="M512.5 253.5m-109.6 0a109.6 109.6 0 1 0 219.2 0 109.6 109.6 0 1 0-219.2 0Z" fill="#D1D3D3" /><path d="M369 384.1c-4.1 0-8.3-1.8-11.1-5.3-28.6-35.3-44.4-79.8-44.4-125.3s15.8-90 44.4-125.2c5-6.1 13.9-7.1 20.1-2.1 6.1 5 7 13.9 2.1 20-24.5 30.2-38 68.3-38 107.3s13.5 77.1 38 107.3c5 6.1 4 15.1-2.1 20.1-2.6 2.1-5.8 3.2-9 3.2z" fill="#FFB819" /><path d="M299 440.8c-4.1 0-8.3-1.8-11.1-5.3-41.6-51.3-64.5-115.9-64.5-182s22.9-130.7 64.5-182c5-6.1 13.9-7.1 20-2.1s7 13.9 2.1 20c-37.5 46.2-58.1 104.5-58.1 164s20.6 117.8 58.1 164c5 6.1 4 15.1-2.1 20-2.6 2.3-5.7 3.4-8.9 3.4zM656 384.1c-3.2 0-6.3-1-9-3.2-6.1-5-7-13.9-2.1-20.1 24.5-30.2 38-68.3 38-107.3s-13.5-77.1-38-107.3c-5-6.1-4-15.1 2.1-20 6.1-5 15.1-4 20.1 2.1 28.6 35.3 44.4 79.8 44.4 125.2 0 45.5-15.8 90-44.4 125.3-2.8 3.5-6.9 5.3-11.1 5.3z" fill="#FFB819" /><path d="M726.1 440.8c-3.2 0-6.3-1-9-3.2-6.1-5-7-13.9-2.1-20 37.5-46.2 58.1-104.5 58.1-164 0-59.6-20.6-117.8-58.1-164-5-6.1-4-15.1 2.1-20 6.1-5 15.1-4 20 2.1 41.6 51.3 64.5 115.9 64.5 182s-22.9 130.7-64.5 182c-2.8 3.3-6.9 5.1-11 5.1z" fill="#FFB819" /><path d="M388.7 899.6c0-6.1-5-11.1-11.1-11.1h-138c-6.1 0-11.1 5-11.1 11.1v48.9c0 6.1 5 11.1 11.1 11.1h138c6.1 0 11.1-5 11.1-11.1v-48.9zM636.4 899.6c0-6.1 5-11.1 11.1-11.1h138c6.1 0 11.1 5 11.1 11.1v48.9c0 6.1-5 11.1-11.1 11.1h-138c-6.1 0-11.1-5-11.1-11.1v-48.9z" fill="#A4A9AD" /></svg>